<svg xmlns="http://www.w3.org/2000/svg" version="1.1" xmlns:xlink="http://www.w3.org/1999/xlink" xmlns:svgjs="http://svgjs.dev/svgjs" width="1500" height="276" viewBox="0 0 1500 276"><g transform="matrix(1,0,0,1,-0.9090909090909918,0.8255769996344497)"><svg viewBox="0 0 396 73" data-background-color="#ffffff" preserveAspectRatio="xMidYMid meet" height="276" width="1500" xmlns="http://www.w3.org/2000/svg" xmlns:xlink="http://www.w3.org/1999/xlink"><g id="tight-bounds" transform="matrix(1,0,0,1,0.2400000000000091,-0.21835913396128603)"><svg viewBox="0 0 395.52 73.43671826792256" height="73.43671826792256" width="395.52"><g><svg viewBox="0 0 509.5784367642201 94.6140981393164" height="73.43671826792256" width="395.52"><g transform="matrix(1,0,0,1,114.05843676422012,26.715863789384343)"><svg viewBox="0 0 395.52 41.18237056054771" height="41.18237056054771" width="395.52"><g id="textblocktransform"><svg viewBox="0 0 395.52 41.18237056054771" height="41.18237056054771" width="395.52" id="textblock"><g><svg viewBox="0 0 395.52 41.18237056054771" height="41.18237056054771" width="395.52"><g transform="matrix(1,0,0,1,0,0)"><svg width="395.52" viewBox="4.15 -36 346.63 36.5" height="41.18237056054771" data-palette-color="#a61713"><g class="wordmark-text-0" data-fill-palette-color="primary" id="text-0"><path d="M4.15-36L8.85-36 8.85-11.3 20.25-25.55 25.4-25.55 15.55-13.15 26.05 0 20.35 0 12.7-9.5 8.85-5.5 8.85 0 4.15 0 4.15-36ZM30.8-36L35.7-36 35.7-31.65 30.8-31.65 30.8-36ZM30.9-25.55L35.6-25.55 35.6 0 30.9 0 30.9-25.55ZM49.4-33.7L49.4-25.55 55.35-25.55 55.35-21.8 49.4-21.8 49.4-6.55Q49.4-4.75 50.1-3.95 50.8-3.15 52.25-3.15L52.25-3.15Q53.55-3.15 55.35-3.9L55.35-3.9 55.35-0.4Q53.55 0.5 50.7 0.5L50.7 0.5Q47.75 0.5 46.22-1.25 44.7-3 44.7-6.8L44.7-6.8 44.7-21.8 41.9-21.8 41.9-25.55 44.85-25.55 46.45-33.7 49.4-33.7ZM71.19-26.05Q74.24-26.05 76.67-24.73 79.09-23.4 80.44-21 81.79-18.6 81.79-15.5L81.79-15.5 77.14-15.5Q77.14-18.6 75.57-20.45 73.99-22.3 71.04-22.3L71.04-22.3Q67.94-22.3 66.12-20.23 64.29-18.15 64.29-14.55L64.29-14.55 64.29-11.85Q64.29-7.5 66.09-5.38 67.89-3.25 71.19-3.25L71.19-3.25Q74.24-3.25 75.77-5.08 77.29-6.9 77.29-10L77.29-10 81.79-10Q81.79-5.2 78.92-2.35 76.04 0.5 71.24 0.5L71.24 0.5 70.84 0.5Q67.44 0.5 64.89-1.07 62.34-2.65 60.97-5.5 59.59-8.35 59.59-12.15L59.59-12.15 59.59-13.35Q59.59-17.15 60.99-20.03 62.39-22.9 64.94-24.48 67.49-26.05 70.79-26.05L70.79-26.05 71.19-26.05ZM93.09-36L93.09-22.35Q96.24-26.05 100.99-26.05L100.99-26.05Q105.19-26.05 107.59-23.8 109.99-21.55 109.99-17.2L109.99-17.2 109.99 0 105.29 0 105.29-16.35Q105.29-22.3 99.89-22.3L99.89-22.3Q98.09-22.3 96.54-21.35 94.99-20.4 94.04-18.78 93.09-17.15 93.09-15.2L93.09-15.2 93.09 0 88.39 0 88.39-36 93.09-36ZM128.29-26.05Q131.44-26.05 133.86-24.73 136.29-23.4 137.64-20.95 138.99-18.5 138.99-15.25L138.99-15.25 138.99-11.7 121.14-11.7Q121.24-7.65 123.04-5.45 124.84-3.25 128.39-3.25L128.39-3.25Q131.54-3.25 133.04-5.1 134.54-6.95 134.54-9.5L134.54-9.5 138.99-9.5Q138.99-6.5 137.61-4.25 136.24-2 133.81-0.75 131.39 0.5 128.29 0.5L128.29 0.5 128.09 0.5Q122.69 0.5 119.56-2.98 116.44-6.45 116.44-12.25L116.44-12.25 116.44-13.25Q116.44-17.05 117.84-19.95 119.24-22.85 121.84-24.45 124.44-26.05 127.94-26.05L127.94-26.05 128.29-26.05ZM128.04-22.3Q125.19-22.3 123.41-20.55 121.64-18.8 121.24-15.35L121.24-15.35 134.34-15.35 134.34-15.95Q134.34-18.8 132.61-20.55 130.89-22.3 128.04-22.3L128.04-22.3ZM158.44-26.05Q162.64-26.05 165.04-23.8 167.44-21.55 167.44-17.2L167.44-17.2 167.44 0 162.74 0 162.74-16.35Q162.74-22.3 157.34-22.3L157.34-22.3Q155.54-22.3 153.99-21.35 152.44-20.4 151.49-18.78 150.54-17.15 150.54-15.2L150.54-15.2 150.54 0 145.84 0 145.84-25.55 149.24-25.55 149.89-21.8Q153.09-26.05 158.44-26.05L158.44-26.05Z" fill="#a61713" data-fill-palette-color="primary"></path><path d="M214.29-34.3L221.94-34.3 221.94 0 217.04 0 217.04-28.55 216.74-28.55 204.89 0 200.74 0 188.94-28.55 188.69-28.55 188.69 0 184.24 0 184.24-34.3 191.94-34.3 202.99-7.3 203.19-7.3 214.29-34.3ZM240.74-26.05Q245.79-26.05 248.26-24.05 250.74-22.05 250.74-18.25L250.74-18.25 250.74-5Q250.74-4.1 251.14-3.68 251.54-3.25 252.14-3.25L252.14-3.25Q253.29-3.25 254.44-3.95L254.44-3.95 254.44-0.5Q252.74 0.5 250.59 0.5L250.59 0.5Q248.44 0.5 247.39-0.73 246.34-1.95 246.24-4.1L246.24-4.1Q243.14 0.5 237.29 0.5L237.29 0.5Q233.09 0.5 231.01-1.33 228.94-3.15 228.94-7.1L228.94-7.1Q228.94-10.2 230.54-11.98 232.14-13.75 235.84-14.55 239.54-15.35 246.04-15.35L246.04-15.35 246.04-17.7Q246.04-20.25 244.54-21.28 243.04-22.3 240.19-22.3L240.19-22.3Q237.49-22.3 235.99-21.25 234.49-20.2 234.49-18.3L234.49-18.3 234.49-17.7 229.89-17.7Q229.79-18.4 229.79-19.35L229.79-19.35Q229.79-21.1 231.19-22.65 232.59-24.2 234.99-25.13 237.39-26.05 240.29-26.05L240.29-26.05 240.74-26.05ZM246.04-11.7Q240.79-11.7 238.11-11.18 235.44-10.65 234.54-9.6 233.64-8.55 233.64-6.7L233.64-6.7Q233.64-3.25 238.89-3.25L238.89-3.25Q240.74-3.25 242.39-4.17 244.04-5.1 245.04-6.8 246.04-8.5 246.04-10.7L246.04-10.7 246.04-11.7ZM269.68-26.05Q272.53-26.05 274.76-25.15 276.98-24.25 278.21-22.65 279.43-21.05 279.43-19.1L279.43-19.1 279.38-18.2 274.73-18.2 274.73-18.65Q274.73-22.3 269.08-22.3L269.08-22.3Q263.48-22.3 263.48-18.95L263.48-18.95Q263.48-17.4 265.08-16.68 266.68-15.95 269.98-15.3L269.98-15.3Q273.13-14.65 275.16-13.95 277.18-13.25 278.61-11.75 280.03-10.25 280.03-7.7L280.03-7.7Q280.03-3.6 277.23-1.55 274.43 0.5 269.18 0.5L269.18 0.5 268.43 0.5Q265.28 0.5 262.93-0.48 260.58-1.45 259.31-3.13 258.03-4.8 258.08-6.9L258.08-6.9 258.08-8 262.73-8 262.73-7.5Q262.73-3.25 269.88-3.25L269.88-3.25Q271.98-3.25 273.66-4.2 275.33-5.15 275.33-6.8L275.33-6.8Q275.33-8.2 274.41-9 273.48-9.8 272.13-10.2 270.78-10.6 268.38-11L268.38-11Q265.28-11.6 263.38-12.23 261.48-12.85 260.13-14.35 258.78-15.85 258.78-18.45L258.78-18.45Q258.78-22 261.58-24.03 264.38-26.05 269.23-26.05L269.23-26.05 269.68-26.05ZM292.13-33.7L292.13-25.55 298.08-25.55 298.08-21.8 292.13-21.8 292.13-6.55Q292.13-4.75 292.83-3.95 293.53-3.15 294.98-3.15L294.98-3.15Q296.28-3.15 298.08-3.9L298.08-3.9 298.08-0.4Q296.28 0.5 293.43 0.5L293.43 0.5Q290.48 0.5 288.96-1.25 287.43-3 287.43-6.8L287.43-6.8 287.43-21.8 284.63-21.8 284.63-25.55 287.58-25.55 289.18-33.7 292.13-33.7ZM314.18-26.05Q317.33-26.05 319.75-24.73 322.18-23.4 323.53-20.95 324.88-18.5 324.88-15.25L324.88-15.25 324.88-11.7 307.03-11.7Q307.13-7.65 308.93-5.45 310.73-3.25 314.28-3.25L314.28-3.25Q317.43-3.25 318.93-5.1 320.43-6.95 320.43-9.5L320.43-9.5 324.88-9.5Q324.88-6.5 323.5-4.25 322.13-2 319.7-0.75 317.28 0.5 314.18 0.5L314.18 0.5 313.98 0.5Q308.58 0.5 305.45-2.98 302.33-6.45 302.33-12.25L302.33-12.25 302.33-13.25Q302.33-17.05 303.73-19.95 305.13-22.85 307.73-24.45 310.33-26.05 313.83-26.05L313.83-26.05 314.18-26.05ZM313.93-22.3Q311.08-22.3 309.3-20.55 307.53-18.8 307.13-15.35L307.13-15.35 320.23-15.35 320.23-15.95Q320.23-18.8 318.5-20.55 316.78-22.3 313.93-22.3L313.93-22.3ZM343.23-26.05Q346.78-26.05 348.78-23.78 350.78-21.5 350.78-18.05L350.78-18.05 350.63-16.15 346.48-16.15 346.48-17.25Q346.48-18.75 345.73-19.9 344.98-21.05 343.83-21.68 342.68-22.3 341.53-22.3L341.53-22.3Q339.13-22.3 337.78-20.4 336.43-18.5 336.43-15.25L336.43-15.25 336.43 0 331.73 0 331.73-25.55 335.08-25.55 335.78-21.75Q336.08-22.75 337.13-23.75 338.18-24.75 339.75-25.4 341.33-26.05 343.23-26.05L343.23-26.05Z" fill="#da0037" data-fill-palette-color="accent"></path></g></svg></g></svg></g></svg></g></svg></g><g><svg viewBox="0 0 94.6140981393164 94.6140981393164" height="94.6140981393164" width="94.6140981393164"><g><svg></svg></g><g id="icon-0"><svg viewBox="0 0 94.6140981393164 94.6140981393164" height="94.6140981393164" width="94.6140981393164"><g><path d="M0 47.307c0-26.127 21.18-47.307 47.307-47.307 26.127 0 47.307 21.18 47.307 47.307 0 26.127-21.18 47.307-47.307 47.307-26.127 0-47.307-21.18-47.307-47.307zM47.307 90.9c24.076 0 43.593-19.517 43.593-43.593 0-24.076-19.517-43.593-43.593-43.593-24.076 0-43.593 19.517-43.593 43.593 0 24.076 19.517 43.593 43.593 43.593z" data-fill-palette-color="accent" fill="#da0037" stroke="transparent"></path></g><g transform="matrix(1,0,0,1,27.342277276311926,25.123969210305816)"><svg viewBox="0 0 39.929543586692546 44.366159718704765" height="44.366159718704765" width="39.929543586692546"><g><svg xmlns="http://www.w3.org/2000/svg" viewBox="12 7.9999996390453045 72.0000003609547 80.0000007219094" x="0" y="0" height="44.366159718704765" width="39.929543586692546" class="icon-cg-0" data-fill-palette-color="accent" id="cg-0"><g fill="#da0037" data-fill-palette-color="accent"><path d="M12 14V82a6.007 6.007 0 0 0 6 6h2V8H18A6.007 6.007 0 0 0 12 14Z" fill="#da0037" data-fill-palette-color="accent"></path><path d="M82 8H24V88H82a1.999 1.999 0 0 0 2-2V10A1.999 1.999 0 0 0 82 8ZM44 47.704V70a2 2 0 0 1-4 0V47.704c-3.086-0.823-6-3.638-6-9.704 0-5.723 2.848-14 8-14s8 8.277 8 14C50 44.066 47.086 46.881 44 47.704ZM74 38a10.015 10.015 0 0 1-8 9.798V70a2 2 0 0 1-4 0V47.798A10.015 10.015 0 0 1 54 38V28a2 2 0 0 1 4 0V38a5.99 5.99 0 0 0 4 5.632V28a2 2 0 0 1 4 0V43.632A5.99 5.99 0 0 0 70 38V28a2 2 0 0 1 4 0Z" fill="#da0037" data-fill-palette-color="accent"></path><path d="M42 28c-1.352 0-4 4.527-4 10 0 2.24 0.52 6 4 6s4-3.76 4-6C46 32.527 43.352 28 42 28Z" fill="#da0037" data-fill-palette-color="accent"></path></g></svg></g></svg></g></svg></g></svg></g></svg></g><defs></defs></svg><rect width="395.52" height="73.43671826792256" fill="none" stroke="none" visibility="hidden"></rect></g></svg></g></svg>